<svg width="25" height="28" viewBox="0 0 25 28" fill="none" xmlns="http://www.w3.org/2000/svg">
<path d="M23.9231 21.8207C23.4997 22.799 22.9985 23.6995 22.4178 24.5273C21.6262 25.6559 20.978 26.4372 20.4786 26.871C19.7043 27.583 18.8747 27.9477 17.9863 27.9685C17.3485 27.9685 16.5794 27.787 15.6841 27.4189C14.7859 27.0524 13.9605 26.871 13.2057 26.871C12.4141 26.871 11.5652 27.0524 10.6571 27.4189C9.74764 27.787 9.015 27.9788 8.45484 27.9978C7.60294 28.0341 6.75381 27.6591 5.90623 26.871C5.36526 26.3991 4.68862 25.5903 3.87803 24.4444C3.00833 23.2207 2.29331 21.8017 1.73316 20.184C1.13325 18.4367 0.83252 16.7446 0.83252 15.1065C0.83252 13.23 1.23799 11.6116 2.05013 10.2554C2.68841 9.166 3.53754 8.30666 4.6003 7.67582C5.66306 7.04497 6.81137 6.7235 8.04799 6.70293C8.72464 6.70293 9.61197 6.91224 10.7146 7.32358C11.8142 7.73631 12.5202 7.94561 12.8298 7.94561C13.0612 7.94561 13.8455 7.70088 15.1751 7.21297C16.4325 6.76049 17.4937 6.57314 18.3631 6.64694C20.7188 6.83705 22.4886 7.76569 23.6656 9.43873C21.5588 10.7153 20.5166 12.5033 20.5373 14.7969C20.5563 16.5835 21.2045 18.0702 22.4782 19.2507C23.0555 19.7986 23.7002 20.222 24.4174 20.5228C24.2619 20.9739 24.0977 21.4059 23.9231 21.8207ZM18.5203 0.560404C18.5203 1.96072 18.0088 3.2682 16.989 4.47838C15.7585 5.91706 14.27 6.74839 12.6559 6.61721C12.6354 6.44921 12.6234 6.2724 12.6234 6.08661C12.6234 4.7423 13.2086 3.30363 14.2479 2.12732C14.7667 1.53173 15.4266 1.03651 16.2268 0.641462C17.0253 0.252308 17.7806 0.037098 18.491 0.000244141C18.5117 0.187445 18.5203 0.374658 18.5203 0.560386V0.560404Z" fill="white"/>
</svg>
