<svg width="29" height="28" viewBox="0 0 29 28" fill="none" xmlns="http://www.w3.org/2000/svg">
<g clip-path="url(#clip0_4112_1690)">
<path d="M14.499 11.4545V16.8763H22.0335C21.7027 18.6199 20.7098 20.0963 19.2208 21.0891L23.7644 24.6145C26.4117 22.171 27.9389 18.5819 27.9389 14.3182C27.9389 13.3255 27.8499 12.3709 27.6844 11.4546L14.499 11.4545Z" fill="#4285F4"/>
<path d="M6.65258 16.6647L5.62782 17.4491L2.00049 20.2745C4.30412 24.8436 9.02559 28 14.4983 28C18.2782 28 21.4472 26.7527 23.7636 24.6146L19.22 21.0891C17.9727 21.9291 16.3818 22.4382 14.4983 22.4382C10.8583 22.4382 7.76565 19.9819 6.6583 16.6728L6.65258 16.6647Z" fill="#34A853"/>
<path d="M2.00073 7.72546C1.04624 9.60902 0.499023 11.7345 0.499023 13.9999C0.499023 16.2653 1.04624 18.3908 2.00073 20.2744C2.00073 20.287 6.65899 16.6598 6.65899 16.6598C6.379 15.8198 6.21349 14.929 6.21349 13.9998C6.21349 13.0706 6.379 12.1797 6.65899 11.3397L2.00073 7.72546Z" fill="#FBBC05"/>
<path d="M14.4986 5.57454C16.5604 5.57454 18.3931 6.28725 19.8567 7.66181L23.8658 3.65277C21.4349 1.38736 18.2786 0 14.4986 0C9.02587 0 4.30412 3.14363 2.00049 7.72546L6.65861 11.34C7.76581 8.03089 10.8586 5.57454 14.4986 5.57454Z" fill="#EA4335"/>
</g>
<defs>
<clipPath id="clip0_4112_1690">
<rect width="28" height="28" fill="white" transform="translate(0.499023)"/>
</clipPath>
</defs>
</svg>
