<svg width="33" height="32" viewBox="0 0 33 32" fill="none" xmlns="http://www.w3.org/2000/svg">
<path d="M9.5 1L0 6.72727L9.5 12.4545L19 6.72727L9.5 1Z" fill="white"/>
<path d="M0 6.72729V16.2727L9.5 22V12.4546L0 6.72729Z" fill="white"/>
<path d="M19 6.72729V16.2727L9.5 22V12.4546L19 6.72729Z" fill="white"/>
<path d="M15.8079 11.8818L13.9079 13.2563V9.78179L4.29395 4.13088L5.98495 3.09998L15.8079 8.67452V11.8818Z" fill="#AEAEAE"/>
<circle cx="22.5715" cy="21.4286" r="10" fill="#AEAEAE"/>
<path d="M23.2382 14.8572C26.6058 14.8572 29.3334 17.5848 29.3334 20.9524V25.5238H17.1429V20.9524C17.1429 17.5848 19.8706 14.8572 23.2382 14.8572Z" fill="white"/>
<path d="M26.2865 27.0477H20.1913V28.5715H26.2865V27.0477Z" fill="white"/>
</svg>
